<?xml version="1.0" encoding="UTF-8" standalone="no"?>
<!DOCTYPE svg PUBLIC "-//W3C//DTD SVG 20010904//EN" "http://www.w3.org/TR/2001/REC-SVG-20010904/DTD/svg10.dtd">
<svg version="1.0" xmlns="http://www.w3.org/2000/svg" width="1200.000000pt" height="1200.000000pt" viewBox="0 0 1200.000000 1200.000000" preserveAspectRatio="xMidYMid meet">
<metadata>
Created by potrace 1.11, written by Peter Selinger 2001-2013
</metadata>
<g transform="translate(0.000000,1200.000000) scale(0.100000,-0.100000)" fill="#000000" stroke="none">
<path d="M4619 11856 c-2 -2 -35 -7 -74 -10 -86 -8 -280 -48 -400 -82 -49 -14 -99 -27 -110 -29 -45 -10 -327 -106 -425 -145 -136 -54 -374 -173 -425 -212 -5 -4 -46 -34 -90 -66 -70 -51 -174 -150 -232 -219 -82 -98 -115 -144 -228 -316 -221 -335 -214 -327 -496 -589 -57 -54 -135 -134 -174 -179 -38 -45 -75 -87 -80 -93 -71 -79 -238 -319 -319 -460 -95 -164 -149 -279 -261 -551 -27 -65 -105 -316 -134 -430 -29 -119 -75 -348 -86 -435 -3 -25 -8 -54 -9 -65 -2 -11 -7 -49 -11 -85 -4 -36 -8 -76 -10 -89 -10 -58 -19 -293 -19 -471 0 -220 9 -398 29 -565 3 -22 7 -60 10 -85 3 -25 7 -56 10 -70 2 -14 7 -45 10 -70 3 -25 8 -56 10 -70 3 -14 7 -41 10 -60 4 -19 10 -53 15 -75 5 -22 11 -53 14 -70 13 -70 53 -241 72 -311 8 -28 16 -60 19 -70 6 -33 63 -214 101 -324 70 -201 180 -464 274 -650 l28 -55 -102 -2 c-251 -4 -416 -84 -487 -238 -36 -78 -40 -103 -45 -270 -9 -322 82 -469 323 -519 84 -18 335 -14 476 8 18 2 61 7 97 11 36 3 83 8 105 10 58 6 266 6 295 1 25 -6 32 -12 130 -126 108 -126 158 -178 345 -365 374 -372 733 -656 1135 -895 169 -101 235 -132 490 -225 74 -28 315 -144 308 -150 -2 -1 -34 1 -73 5 -160 18 -497 26 -630 15 -82 -6 -189 -17 -210 -21 -11 -1 -40 -6 -64 -9 -25 -3 -48 -8 -53 -11 -4 -3 -21 -7 -38 -9 -48 -6 -224 -63 -292 -95 -311 -144 -454 -393 -394 -689 9 -46 21 -90 25 -99 5 -10 21 -44 36 -77 47 -104 114 -197 209 -290 140 -140 280 -229 456 -293 151 -55 271 -75 450 -74 264 1 468 60 820 237 243 122 341 170 380 187 19 9 51 23 70 31 124 57 277 89 475 102 103 7 173 14 195 20 8 2 33 7 56 10 23 3 80 16 127 29 68 19 88 21 99 11 18 -17 242 -150 373 -222 199 -110 389 -201 546 -261 297 -115 490 -166 819 -217 49 -7 174 -19 319 -30 52 -4 102 -8 111 -10 26 -5 363 -18 465 -17 134 0 357 13 460 26 107 14 134 18 235 37 417 80 732 239 996 503 202 203 274 323 309 518 13 75 15 309 2 358 -2 8 -7 38 -12 65 -7 48 -62 218 -89 280 -115 257 -424 881 -499 1008 -26 43 -47 80 -47 82 0 9 -169 257 -227 335 -110 146 -256 314 -312 361 -30 24 -71 58 -90 75 -80 70 -325 271 -571 467 -15 12 -296 230 -375 291 -22 17 -44 34 -50 38 -5 5 -47 36 -92 71 -225 172 -368 282 -497 384 l-143 112 -41 143 c-23 79 -46 168 -52 198 -23 124 -39 229 -46 295 -3 39 -8 79 -11 90 -3 11 -7 211 -10 445 -3 234 -8 428 -12 432 -3 4 -45 28 -91 53 -123 66 -269 119 -390 141 -14 3 -32 7 -40 9 -59 17 -263 23 -357 11 -303 -37 -506 -198 -592 -467 -20 -63 -38 -189 -36 -247 3 -58 30 -161 72 -266 12 -33 21 -61 19 -63 -2 -2 -138 53 -302 123 -273 116 -644 264 -662 264 -4 0 -18 21 -32 46 -62 118 -193 261 -276 302 -144 72 -218 81 -704 87 -173 2 -342 6 -375 10 -77 8 -128 15 -130 18 -1 1 -19 34 -40 72 -114 212 -270 364 -446 436 -121 49 -208 61 -479 64 -230 3 -264 7 -336 40 -60 27 -95 69 -119 145 -22 69 -63 156 -78 168 -7 4 -37 14 -67 21 -71 17 -113 39 -104 53 4 7 3 8 -5 4 -25 -16 -109 61 -172 157 -86 132 -115 343 -75 547 1 8 6 33 11 55 18 93 86 197 212 328 212 220 477 366 833 461 321 85 454 76 870 -59 150 -49 208 -56 323 -41 87 12 122 32 153 89 27 49 29 59 28 162 0 124 -25 231 -93 410 -34 88 -86 272 -98 345 -2 14 -7 71 -10 126 -5 89 -1 136 22 254 2 14 23 63 46 110 76 152 226 280 534 454 39 22 183 115 210 135 53 41 153 153 177 200 43 82 30 98 -117 135 -33 8 -78 18 -100 22 -44 6 -370 15 -376 10z"/>
</g>
</svg>